<svg width="54" height="54" viewBox="0 0 54 54" fill="none" xmlns="http://www.w3.org/2000/svg">
    <path fill-rule="evenodd" clip-rule="evenodd" d="M18 20.5C18 20.2239 18.2239 20 18.5 20H35.5C35.7761 20 36 20.2239 36 20.5V21.5C36 21.7761 35.7761 22 35.5 22H18.5C18.2239 22 18 21.7761 18 21.5V20.5ZM18 26.5C18 26.2239 18.2239 26 18.5 26H35.5C35.7761 26 36 26.2239 36 26.5V27.5C36 27.7761 35.7761 28 35.5 28H18.5C18.2239 28 18 27.7761 18 27.5V26.5ZM18.5 32C18.2239 32 18 32.2239 18 32.5V33.5C18 33.7761 18.2239 34 18.5 34H35.5C35.7761 34 36 33.7761 36 33.5V32.5C36 32.2239 35.7761 32 35.5 32H18.5Z" fill="#438DE2"/>
</svg>